<?xml version="1.0" standalone="no"?>
<!DOCTYPE svg PUBLIC "-//W3C//DTD SVG 20010904//EN"
 "http://www.w3.org/TR/2001/REC-SVG-20010904/DTD/svg10.dtd">
<svg version="1.0" xmlns="http://www.w3.org/2000/svg"
 width="16.000000pt" height="16.000000pt" viewBox="0 0 16.000000 16.000000"
 preserveAspectRatio="xMidYMid meet">
<metadata>
Created by potrace 1.11, written by Peter Selinger 2001-2013
</metadata>
<g transform="translate(0.000000,16.000000) scale(0.006154,-0.006154)"
fill="#000000" stroke="none">
<path d="M1188 2595 c-2 -2 -25 -5 -53 -9 -59 -7 -103 -15 -127 -22 -9 -3 -27
-7 -40 -10 -27 -6 -38 -9 -58 -16 -8 -3 -37 -14 -65 -23 -211 -74 -442 -250
-593 -451 -89 -118 -196 -357 -218 -484 -3 -14 -7 -31 -10 -39 -10 -31 -18
-142 -17 -256 1 -126 3 -153 28 -275 13 -64 71 -223 108 -295 23 -44 68 -118
101 -165 65 -92 214 -246 275 -284 21 -14 44 -30 52 -38 19 -18 79 -51 174
-97 111 -54 225 -91 320 -105 17 -3 30 -5 30 -6 0 -5 124 -14 205 -14 92 0
257 15 268 24 1 1 7 4 12 5 6 1 13 4 18 5 4 1 10 2 14 1 4 0 42 11 85 25 111
35 275 119 368 188 85 63 215 188 255 246 13 19 27 37 30 40 38 35 142 236
176 341 33 99 29 87 49 179 27 127 25 369 -4 495 -27 116 -25 108 -55 193 -78
225 -237 438 -440 589 -105 79 -279 169 -381 198 -33 10 -67 20 -75 23 -8 3
-19 6 -25 7 -5 1 -30 5 -55 10 -25 4 -56 10 -70 12 -29 5 -278 12 -282 8z
m299 -119 c102 -13 329 -97 428 -159 51 -31 174 -128 215 -168 60 -60 140
-155 140 -167 0 -6 4 -12 8 -14 21 -8 116 -191 142 -273 7 -22 15 -44 18 -50
3 -5 7 -16 8 -25 1 -8 5 -25 8 -37 23 -89 28 -139 29 -283 1 -171 -13 -254
-70 -413 -92 -260 -310 -506 -567 -641 -73 -38 -216 -91 -275 -101 -19 -3 -37
-7 -40 -9 -17 -11 -129 -20 -231 -19 -127 1 -195 7 -255 23 -22 6 -50 13 -63
16 -13 2 -53 16 -89 30 -202 75 -383 204 -509 360 -21 27 -42 51 -46 52 -5 2
-8 8 -8 14 0 5 -11 24 -24 41 -79 105 -160 319 -184 487 -8 53 -6 289 2 340
40 251 167 494 350 673 134 131 347 253 511 293 6 2 20 5 33 8 48 12 69 16
112 22 24 3 46 7 48 9 4 4 266 -3 309 -9z"/>
<path d="M1187 2433 c-2 -1 -25 -5 -53 -8 -129 -15 -300 -78 -429 -158 -44
-27 -82 -52 -85 -56 -3 -3 -30 -26 -60 -51 -30 -25 -68 -60 -85 -79 -16 -19
-37 -42 -46 -50 -54 -53 -190 -292 -204 -360 -2 -9 -10 -35 -19 -58 -8 -24
-13 -43 -11 -43 2 0 0 -14 -5 -31 -17 -57 -24 -142 -23 -259 0 -119 10 -186
45 -305 11 -38 20 -71 20 -72 -2 -8 92 -189 102 -195 6 -4 8 -8 4 -8 -4 0 -1
-8 7 -17 7 -10 34 -45 59 -79 53 -71 162 -177 232 -225 27 -18 51 -35 54 -39
8 -9 160 -85 200 -99 19 -7 44 -17 55 -21 123 -52 416 -70 570 -36 90 20 121
28 151 41 19 8 34 12 34 10 0 -12 220 111 283 159 136 102 267 260 334 401 15
33 33 63 38 67 6 4 6 8 1 8 -5 0 -2 7 5 17 8 9 12 17 10 17 -2 1 3 24 13 52
45 138 64 360 42 507 -4 26 -8 50 -8 54 -2 27 -43 158 -65 213 -45 109 -120
234 -179 297 -14 15 -36 39 -48 53 -74 88 -245 207 -378 264 -114 48 -163 62
-293 83 -34 5 -264 11 -268 6z m273 -117 c14 -3 39 -8 55 -11 36 -7 59 -13 63
-15 1 -2 5 -3 10 -4 59 -14 242 -94 242 -108 0 -4 5 -8 11 -8 6 0 27 -12 47
-27 20 -16 43 -32 51 -38 7 -5 49 -45 92 -87 199 -197 302 -461 294 -748 -2
-58 -6 -118 -10 -135 -15 -74 -39 -162 -53 -194 -9 -20 -17 -42 -18 -48 -4
-25 -76 -145 -126 -211 -84 -112 -197 -211 -322 -281 -38 -22 -149 -70 -175
-77 -9 -2 -41 -11 -71 -19 -106 -29 -269 -38 -395 -21 -33 4 -66 8 -72 9 -7 0
-13 4 -13 9 0 5 -4 7 -9 4 -9 -6 -115 28 -194 63 -52 22 -167 94 -213 133 -81
67 -204 203 -204 226 0 6 -4 12 -8 12 -11 0 -110 199 -116 230 -1 8 -7 31 -14
50 -24 75 -35 157 -36 275 0 106 9 201 24 241 5 13 7 24 4 24 -4 0 -2 6 3 13
6 6 10 19 10 27 0 30 80 197 128 270 92 136 248 275 395 350 82 42 235 88 340
103 38 5 252 0 280 -7z"/>
<path d="M1160 2212 c-34 -11 -46 -64 -20 -87 23 -21 280 -24 310 -4 26 18 32
49 14 74 -13 18 -28 20 -152 21 -75 1 -144 -1 -152 -4z"/>
<path d="M1169 2024 c-30 -7 -55 -13 -56 -13 -2 -1 -11 -4 -20 -7 -81 -24
-205 -86 -239 -119 -6 -5 -26 -24 -46 -41 -51 -45 -124 -138 -153 -193 -34
-68 -65 -153 -59 -162 2 -4 0 -10 -5 -13 -17 -11 -28 -174 -17 -261 8 -66 19
-116 27 -121 5 -3 9 -15 9 -27 0 -26 76 -171 111 -212 51 -60 137 -138 179
-164 99 -58 221 -108 240 -96 5 3 10 2 10 -2 0 -24 293 -21 332 3 5 3 20 7 33
10 64 11 185 79 264 147 112 96 214 266 236 392 2 17 7 41 10 55 7 30 8 198 1
208 -2 4 -7 24 -10 45 -3 21 -20 73 -37 117 -90 235 -291 402 -549 456 -58 12
-203 11 -261 -2z m256 -108 c43 -10 98 -29 110 -38 5 -4 15 -8 23 -8 8 0 34
-13 59 -30 24 -16 47 -30 51 -30 9 0 133 -129 149 -155 49 -78 89 -173 100
-239 8 -41 7 -191 -1 -240 -18 -107 -109 -263 -198 -340 -24 -20 -50 -43 -58
-51 -19 -17 -139 -74 -169 -80 -11 -2 -26 -7 -32 -10 -22 -14 -216 -28 -233
-17 -6 3 -24 7 -42 8 -18 1 -37 5 -43 9 -6 3 -23 9 -38 11 -62 11 -169 79
-243 154 -73 73 -144 184 -154 241 -3 13 -5 25 -7 27 -1 1 -3 7 -4 12 -1 6 -3
11 -5 13 -10 12 -21 217 -12 232 4 6 7 21 8 35 1 14 3 27 4 30 2 3 4 10 5 15
4 19 17 50 53 125 74 155 264 299 429 324 7 1 15 4 18 7 7 7 193 3 230 -5z"/>
<path d="M1186 1863 c-110 -23 -222 -86 -304 -173 -34 -35 -102 -135 -107
-155 -1 -5 -7 -22 -13 -36 -25 -63 -37 -136 -33 -210 1 -31 36 -50 67 -38 30
10 34 20 39 81 11 122 68 235 161 317 91 80 182 114 304 115 164 0 289 -68
390 -211 17 -23 30 -45 30 -50 0 -4 6 -20 14 -35 18 -33 26 -70 31 -137 5 -78
42 -107 88 -71 21 17 24 26 21 82 -2 34 -6 69 -10 78 -3 8 -8 25 -10 37 -7 36
-42 111 -75 161 -40 59 -141 156 -180 172 -16 7 -29 16 -29 20 0 4 -10 10 -22
13 -13 3 -42 12 -65 21 -87 32 -197 39 -297 19z"/>
<path d="M1491 1644 c-44 -31 -24 -94 29 -94 20 0 35 8 45 24 32 48 -26 103
-74 70z"/>
<path d="M1084 1415 c-37 -37 -13 -85 44 -91 15 -1 29 -2 32 -3 3 -1 5 -47 5
-102 1 -93 3 -103 23 -120 36 -28 91 1 86 46 -3 32 12 32 20 0 10 -39 48 -58
121 -58 71 0 103 17 100 53 -2 33 -30 53 -74 54 -45 1 -42 13 4 18 44 5 72 52
69 119 -1 44 -6 57 -28 76 -15 13 -35 24 -44 24 -64 6 -110 4 -125 -3 -25 -13
-36 -48 -24 -75 10 -22 22 -26 80 -25 38 1 34 -13 -5 -16 -49 -3 -85 -49 -79
-99 1 -7 -2 -13 -7 -13 -4 0 -7 33 -7 73 2 124 -19 155 -110 161 -50 3 -61 1
-81 -19z"/>
</g>
</svg>
