<?xml version="1.0" standalone="no"?>
<!DOCTYPE svg PUBLIC "-//W3C//DTD SVG 20010904//EN"
 "http://www.w3.org/TR/2001/REC-SVG-20010904/DTD/svg10.dtd">
<svg version="1.0" xmlns="http://www.w3.org/2000/svg"
 width="16.000000pt" height="16.000000pt" viewBox="0 0 16.000000 16.000000"
 preserveAspectRatio="xMidYMid meet">
<metadata>
Created by potrace 1.11, written by Peter Selinger 2001-2013
</metadata>
<g transform="translate(0.000000,16.000000) scale(0.006154,-0.006154)"
fill="#000000" stroke="none">
<path d="M1148 2449 c-164 -24 -307 -163 -338 -328 -6 -31 -10 -248 -10 -523
l0 -470 -29 -37 c-84 -108 -121 -200 -128 -328 -4 -55 -1 -117 6 -155 39 -202
216 -391 415 -444 66 -18 236 -18 302 0 195 52 374 240 415 435 17 81 6 241
-21 319 -12 35 -46 96 -76 137 l-53 75 -3 502 c-3 488 -4 505 -24 555 -77 188
-258 292 -456 262z m144 -171 c51 -15 126 -82 149 -133 17 -37 19 -77 19 -563
l0 -523 49 -49 c166 -166 156 -434 -21 -594 -76 -69 -145 -97 -253 -103 -213
-13 -391 134 -427 352 -20 117 28 261 115 345 l47 45 0 515 c0 339 4 528 11
554 13 49 100 138 149 153 48 15 115 15 162 1z"/>
<path d="M1137 1464 c-4 -4 -7 -121 -7 -259 l0 -253 -30 -12 c-16 -7 -45 -29
-63 -50 -107 -117 -82 -296 51 -376 63 -38 115 -48 182 -33 142 30 231 199
175 333 -20 47 -77 110 -115 126 l-30 12 -2 257 -3 256 -75 3 c-42 1 -79 0
-83 -4z"/>
<path d="M1717 2124 c-4 -4 -7 -43 -7 -86 l0 -78 125 0 126 0 -3 83 -3 82
-116 3 c-63 1 -118 -1 -122 -4z"/>
<path d="M1717 1794 c-4 -4 -7 -43 -7 -86 l0 -78 125 0 126 0 -3 83 -3 82
-116 3 c-63 1 -118 -1 -122 -4z"/>
<path d="M1717 1464 c-4 -4 -7 -43 -7 -86 l0 -78 125 0 126 0 -3 83 -3 82
-116 3 c-63 1 -118 -1 -122 -4z"/>
</g>
</svg>
